<svg width="154" height="102" viewBox="0 0 154 102" fill="none" xmlns="http://www.w3.org/2000/svg">
<path fill-rule="evenodd" clip-rule="evenodd" d="M37.1467 76.7881C39.3134 76.7881 41.0861 78.5608 41.0861 80.7275C41.0861 82.8941 39.3134 84.6668 37.1467 84.6668C36.6871 84.6668 36.2275 85.0608 36.2275 85.586C36.2275 86.0456 36.6215 86.4395 37.0811 86.5052H37.1467C39.3134 86.5052 41.0861 88.2779 41.0861 90.4445C41.0861 92.6112 39.3134 94.3839 37.1467 94.3839C36.6871 94.3839 36.2275 94.7778 36.2275 95.3031C36.2275 95.7627 36.6215 96.2223 37.1467 96.2223C40.2982 96.2223 42.8588 93.6617 42.8588 90.5102C42.8588 88.4749 41.8083 86.7022 40.2325 85.7173C41.8083 84.7325 42.8588 82.9598 42.8588 80.9244C42.8588 77.7729 40.2982 75.2124 37.1467 75.2124C36.6871 75.2124 36.2275 75.6063 36.2275 76.1316C36.2932 76.3942 36.6871 76.7881 37.1467 76.7881Z" fill="#2B2A29"/>
<path d="M19.8139 80.2679C20.9742 80.2679 21.9149 79.3273 21.9149 78.1669C21.9149 77.0066 20.9742 76.0659 19.8139 76.0659C18.6535 76.0659 17.7129 77.0066 17.7129 78.1669C17.7129 79.3273 18.6535 80.2679 19.8139 80.2679Z" fill="#2B2A29"/>
<path fill-rule="evenodd" clip-rule="evenodd" d="M35.7026 70.4195H2.48072C1.56153 70.4195 0.773664 71.1417 0.708008 72.0609C0.708008 72.1922 0.708008 72.3235 0.708008 72.4548C1.36457 88.8688 14.8897 102 31.5006 102C48.5055 102 62.2932 88.2122 62.2932 71.2074V10.5413C62.2932 6.93023 65.1821 4.04137 68.7932 4.04137C72.4043 4.04137 75.2931 6.93023 75.2931 10.5413C75.2931 11.5261 76.081 12.314 77.0658 12.314C78.0507 12.314 78.8385 11.5261 78.8385 10.5413C78.8385 4.96056 74.3739 0.430298 68.7932 0.430298C63.2124 0.430298 58.7478 4.96056 58.6822 10.4757V44.1571C58.6822 58.6671 48.3742 70.4195 35.7026 70.4195ZM35.7026 73.9649C45.6823 73.9649 54.2832 67.5963 58.7478 58.2731V70.4195C58.7478 70.6821 58.7478 70.8791 58.7478 71.1417C58.7478 86.1769 46.6015 98.3233 31.5663 98.3233C29.7279 98.3233 27.9552 98.1263 26.1825 97.798C31.435 95.5001 35.1117 89.788 35.1117 83.0911C35.1117 79.677 34.1269 76.5255 32.4855 73.9649H35.7026ZM4.45039 73.9649H27.6269C29.9905 76.1316 31.5006 79.4144 31.5006 83.0911C31.5006 89.591 26.7734 94.9091 20.93 94.9091C19.3543 94.9091 17.7129 94.5152 16.3998 93.793C9.89983 89.3941 5.30392 81.9749 4.45039 73.9649Z" fill="#2B2A29"/>
<path fill-rule="evenodd" clip-rule="evenodd" d="M20.6019 39.3642C23.6877 39.3642 26.2483 41.8592 26.2483 45.0106C26.2483 48.0965 23.7534 50.6571 20.6019 50.6571C17.5161 50.6571 14.9555 48.1621 14.9555 45.0106C14.9555 41.9248 17.5161 39.3642 20.6019 39.3642ZM20.6019 51.9702C24.4099 51.9702 27.4957 48.8843 27.4957 45.0763C27.4957 41.2683 24.4099 38.1824 20.6019 38.1824C16.7938 38.1824 13.708 41.2683 13.708 45.0763C13.708 48.8187 16.7938 51.9702 20.6019 51.9702Z" fill="#2B2A29"/>
<path fill-rule="evenodd" clip-rule="evenodd" d="M9.96542 40.8087C9.96542 43.1066 8.12705 44.945 5.8291 44.945C3.53114 44.945 1.69277 43.1066 1.69277 40.8087C1.69277 38.5107 3.53114 36.6724 5.8291 36.6724C8.12705 36.6724 9.96542 38.5107 9.96542 40.8087ZM5.8291 46.1925C8.78361 46.1925 11.2129 43.7632 11.2129 40.8087C11.2129 37.8542 8.78361 35.4249 5.8291 35.4249C2.87458 35.4249 0.445312 37.7885 0.445312 40.8087C0.445312 43.8289 2.87458 46.1925 5.8291 46.1925Z" fill="#2B2A29"/>
<path fill-rule="evenodd" clip-rule="evenodd" d="M17.0566 58.4045C17.0566 55.45 14.6274 53.0207 11.6728 53.0207C8.71833 53.0207 6.28906 55.45 6.28906 58.4045C6.28906 61.359 8.71833 63.7883 11.6728 63.7883C14.693 63.7883 17.0566 61.359 17.0566 58.4045ZM11.7385 54.2682C14.0365 54.2682 15.8748 56.1065 15.8748 58.4045C15.8748 60.7024 14.0365 62.5408 11.7385 62.5408C9.44055 62.5408 7.60218 60.7024 7.60218 58.4045C7.60218 56.1065 9.44055 54.2682 11.7385 54.2682Z" fill="#2B2A29"/>
<path fill-rule="evenodd" clip-rule="evenodd" d="M13.1172 31.9451C11.2788 31.9451 9.83438 30.5007 9.83438 28.6623C9.83438 26.824 11.2788 25.3795 13.1172 25.3795C14.9555 25.3795 16.4 26.824 16.4 28.6623C16.4 30.435 14.8899 31.9451 13.1172 31.9451ZM8.58691 28.6623C8.58691 31.1573 10.6222 33.1926 13.1172 33.1926C15.6121 33.1926 17.6474 31.1573 17.6474 28.6623C17.6474 26.1674 15.6121 24.1321 13.1172 24.1321C10.6222 24.1321 8.58691 26.1674 8.58691 28.6623Z" fill="#2B2A29"/>
<path fill-rule="evenodd" clip-rule="evenodd" d="M45.5506 74.4902C47.4546 74.4902 48.9647 76.0003 48.9647 77.9043C48.9647 79.8083 47.4546 81.3184 45.5506 81.3184C45.091 81.3184 44.7627 81.6467 44.7627 82.1063C44.7627 82.5002 45.091 82.8285 45.4849 82.8941H45.5506C47.4546 82.8941 48.9647 84.4042 48.9647 86.3082C48.9647 88.2123 47.4546 89.7223 45.5506 89.7223C45.091 89.7223 44.7627 90.0506 44.7627 90.5102C44.7627 90.9698 45.091 91.2981 45.5506 91.2981C48.3081 91.2981 50.5404 89.0658 50.5404 86.3082C50.5404 84.5355 49.6212 82.9598 48.2425 82.1063C49.6212 81.2527 50.5404 79.677 50.5404 77.9043C50.5404 75.1467 48.3081 72.9144 45.5506 72.9144C45.091 72.9144 44.7627 73.2427 44.7627 73.7023C44.7627 74.1619 45.091 74.4902 45.5506 74.4902Z" fill="#2B2A29"/>
<path fill-rule="evenodd" clip-rule="evenodd" d="M53.1669 69.4346C54.48 69.4346 55.5305 70.4851 55.5305 71.7983C55.5305 73.1114 54.48 74.1619 53.1669 74.1619C52.9042 74.1619 52.6416 74.4245 52.6416 74.6871C52.6416 74.9497 52.8386 75.2124 53.1669 75.2124C54.48 75.2124 55.5305 76.2629 55.5305 77.576C55.5305 78.8891 54.48 79.9396 53.1669 79.9396C52.9042 79.9396 52.6416 80.2022 52.6416 80.4648C52.6416 80.7275 52.9042 80.9901 53.1669 80.9901C55.0709 80.9901 56.581 79.48 56.581 77.576C56.581 76.3942 55.9244 75.3437 55.0052 74.6871C55.9244 74.0962 56.581 73.0457 56.581 71.7983C56.581 69.8942 55.0709 68.3842 53.1669 68.3842C52.9042 68.3842 52.6416 68.6468 52.6416 68.9094C52.6416 69.172 52.8386 69.4346 53.1669 69.4346Z" fill="#2B2A29"/>
<path fill-rule="evenodd" clip-rule="evenodd" d="M80.8737 68.6468C80.2828 69.6973 79.4292 70.0256 78.2474 69.6317C78.0505 69.566 77.9191 69.4347 77.8535 69.1721C77.7878 68.8438 77.7878 66.1519 77.8535 60.9651C77.8535 60.7681 77.9191 60.5711 78.0505 60.3742C78.1161 60.3085 78.1818 60.2429 78.2474 60.1116C78.707 59.7176 79.101 59.5206 79.4292 59.5206C79.8232 59.5206 80.1514 59.652 80.3484 59.9146C80.5454 60.1115 80.7423 60.4398 80.9393 60.9651C81.2019 61.556 81.3333 62.7378 81.3989 64.5761C81.4646 66.5458 81.2676 67.9246 80.8737 68.6468ZM81.7928 60.9651C81.4646 60.1115 81.1363 59.5206 80.7423 59.1267C80.4797 58.9297 80.1514 58.7984 79.8232 58.7984C79.4292 58.7984 79.1009 58.8641 78.8383 58.9954C78.1818 59.3893 77.7878 59.5863 77.8535 59.5863C77.7878 59.5206 77.7878 59.3237 77.7878 58.9954C77.7878 58.8641 77.7222 58.7984 77.5252 58.7984C77.3282 58.7984 77.2626 58.8641 77.1969 58.9954C77.1969 58.9954 77.1969 59.5206 77.1313 60.7025C77.1313 61.4247 77.1313 61.8186 77.1313 61.8843C77.1969 64.5105 77.1969 67.268 77.1313 70.0912C77.0656 72.8488 77.0656 74.4245 77.1313 74.8841C77.1313 75.0154 77.1313 75.2781 77.1313 75.5407C77.1313 75.869 77.1313 76.0659 77.1313 76.1316C77.1313 76.5255 77.1969 76.7225 77.3939 76.7225C77.7222 76.7225 77.9191 76.5255 77.9191 76.0003C77.9191 75.6063 77.9191 74.6215 77.8535 73.0458C77.8535 71.2074 77.8535 70.2882 77.9191 70.2226C77.9191 70.1569 78.1161 70.2226 78.3787 70.2882C78.707 70.4195 79.0353 70.4195 79.2323 70.4852C80.1514 70.5508 80.8737 70.0256 81.4646 69.0408C81.8585 68.3185 82.1211 67.0054 82.1868 65.1014C82.2524 63.263 82.1211 61.8843 81.7928 60.9651ZM89.7372 63.46C89.7372 63.7883 89.7372 64.5762 89.7372 65.6923C89.7372 66.6771 89.7372 67.3337 89.7372 67.7933C89.7372 68.7781 89.8029 69.566 89.8029 70.1569C89.8029 70.4195 89.9342 70.4852 90.0655 70.4195C90.1968 70.3539 90.3281 70.1569 90.3281 69.8943C90.3281 70.0256 90.3281 69.3034 90.3281 67.662C90.3281 66.2175 90.3281 65.0357 90.3938 63.9852C90.4594 63.0661 90.3938 62.1469 90.3938 61.2277C90.3281 60.3085 90.3281 59.7833 90.3281 59.5863C90.3281 59.1924 90.2625 58.8641 90.0655 58.6015C89.9342 58.4045 89.8029 58.4045 89.6715 58.5358C89.6715 58.6015 89.6715 60.2429 89.7372 63.46ZM88.2271 66.0862C88.3584 67.3337 88.0958 68.3185 87.6362 68.9751C87.3079 69.4347 86.8483 69.6973 86.2574 69.8286C85.7322 69.9599 85.4039 69.9599 85.2726 69.763C85.2069 69.6317 85.1413 69.0408 85.1413 67.9903C85.1413 65.4953 85.1413 64.1822 85.2726 64.1166C85.7322 63.8539 86.1918 63.7883 86.7827 63.9196C87.5706 64.1166 88.0958 64.8388 88.2271 66.0862ZM87.9645 63.7883C87.4393 63.3287 86.7827 63.1974 85.9948 63.3287C85.9948 63.3287 85.7322 63.3943 85.2726 63.5257C85.0756 63.5913 84.9443 63.5257 84.9443 63.5257C84.8787 63.3943 84.8787 62.8034 84.8787 61.7529C84.8787 60.4398 84.8787 59.7176 84.8787 59.652C84.8787 59.5206 84.8787 59.3893 84.8787 59.258C84.8787 59.0611 84.8787 58.9297 84.8787 58.8641C84.8787 58.6015 84.813 58.4702 84.616 58.4702C84.4191 58.4702 84.2878 58.5358 84.2878 58.6015C84.2878 58.7984 84.2878 58.9954 84.2878 59.258V60.5055C84.2878 65.758 84.3534 68.5155 84.3534 68.8438C84.3534 69.763 84.4191 70.2226 84.4191 70.2882C84.4847 70.4195 84.5504 70.4852 84.6817 70.4852C84.9443 70.4852 85.1413 70.4852 85.4696 70.4852C86.1261 70.4852 86.5857 70.4195 86.8483 70.3539C87.3079 70.1569 87.7675 69.8286 88.2271 69.2377C88.6867 68.7125 88.8837 67.7933 88.818 66.4802C88.8837 65.1671 88.5554 64.3135 87.9645 63.7883ZM97.3533 67.3994C97.2876 68.1872 96.8937 68.8438 96.1715 69.369C95.7775 69.6317 95.318 69.763 94.8584 69.6973C94.3988 69.6317 94.0705 69.4347 93.8735 69.1064C93.6766 68.7781 93.5452 67.268 93.4796 64.5761C93.4139 61.8186 93.4796 60.3742 93.7422 60.1772C93.9392 59.9802 94.2675 59.9146 94.6614 59.9146C95.1866 59.9146 95.7119 60.1116 96.1058 60.4398C97.3533 61.4903 97.8129 63.8539 97.3533 67.3994ZM97.3533 60.2429C96.7624 59.5863 95.9745 59.258 94.9897 59.258C94.0048 59.258 93.5452 59.258 93.6109 59.3237C93.5452 59.1924 93.6109 58.7984 93.8735 58.0762C94.1362 57.354 94.3988 56.8288 94.5957 56.6318C95.0553 56.1722 95.5149 55.9096 96.1058 55.7126C96.4341 55.5813 96.7624 55.5156 97.025 55.3843C97.222 55.253 97.3533 54.9247 97.2876 54.4651C97.2876 54.2682 97.222 54.1369 97.1563 54.1369C97.0907 54.0712 96.9594 54.1369 96.828 54.3338C96.6311 54.5965 96.2371 54.8591 95.7119 55.056C95.121 55.3187 94.6614 55.5156 94.3988 55.7783C93.6109 56.4348 93.0857 57.354 92.8887 58.5358C92.7574 59.0611 92.7574 61.8843 92.7574 66.9398C92.7574 68.3185 92.9543 69.3034 93.4139 69.763C93.9392 70.4195 94.6614 70.6165 95.4493 70.4852C96.1058 70.3539 96.5654 70.1569 96.8937 69.8943C97.6816 69.3034 98.1412 68.5812 98.2068 67.7276C98.3381 66.8085 98.3381 65.561 98.2068 63.9852C98.0755 61.9499 97.8129 60.7025 97.3533 60.2429ZM104.772 58.8641C104.772 58.6015 104.904 58.4702 105.035 58.4702C105.232 58.4702 105.363 58.7984 105.363 59.455C105.363 59.5863 105.363 60.0459 105.429 60.7025C105.429 61.4247 105.495 61.8843 105.495 62.0812C105.495 63.0004 105.56 64.2479 105.56 65.758C105.56 66.6115 105.626 67.9903 105.626 69.763C105.626 70.0256 105.626 70.1569 105.56 70.2226C105.429 70.3539 105.298 70.4852 105.232 70.4852C104.969 70.4852 104.838 70.2882 104.838 69.8943C104.904 66.5458 104.904 64.7075 104.772 64.3792C104.707 64.2479 104.313 64.1822 103.591 64.1822C102.277 64.1822 101.555 64.2479 101.49 64.3792C101.424 64.5762 101.358 65.364 101.293 66.6115C101.293 67.0054 101.293 67.5963 101.293 68.4498C101.293 69.3034 101.358 69.8286 101.358 70.0256C101.358 70.2882 101.293 70.4195 101.096 70.4195C100.899 70.4195 100.702 70.2882 100.636 70.0912C100.636 70.0912 100.636 69.5003 100.57 68.3185C100.57 67.9903 100.57 67.662 100.57 67.3994C100.57 67.0711 100.57 66.7428 100.57 66.3489C100.505 62.3439 100.505 59.8489 100.57 58.9297C100.57 58.6671 100.702 58.5358 100.899 58.4702C101.096 58.4702 101.227 58.5358 101.227 58.7984C101.227 59.258 101.227 59.8489 101.227 60.5711C101.096 62.4095 101.096 63.3943 101.293 63.5257C101.49 63.657 102.015 63.7226 103 63.7226C103.985 63.7226 104.51 63.657 104.641 63.5257C104.904 63.3943 104.904 61.8843 104.772 58.8641ZM113.242 63.46C113.242 63.7883 113.242 64.5762 113.242 65.6923C113.242 66.6771 113.242 67.3337 113.242 67.7933C113.242 68.7781 113.308 69.566 113.308 70.1569C113.308 70.4195 113.439 70.4852 113.57 70.4195C113.702 70.3539 113.833 70.1569 113.833 69.8943C113.833 70.0256 113.833 69.3034 113.833 67.662C113.833 66.2175 113.833 65.0357 113.899 63.9852C113.964 63.0661 113.899 62.1469 113.899 61.2277C113.833 60.3085 113.833 59.7833 113.833 59.5863C113.833 59.1924 113.767 58.8641 113.57 58.6015C113.439 58.4045 113.308 58.4045 113.176 58.5358C113.176 58.6015 113.176 60.2429 113.242 63.46ZM111.666 66.0862C111.798 67.3337 111.535 68.3185 111.075 68.9751C110.747 69.4347 110.287 69.6973 109.697 69.8286C109.171 69.9599 108.843 69.9599 108.712 69.763C108.646 69.6317 108.58 69.0408 108.58 67.9903C108.58 65.4953 108.58 64.1822 108.712 64.1166C109.171 63.8539 109.631 63.7883 110.222 63.9196C111.075 64.1166 111.601 64.8388 111.666 66.0862ZM111.469 63.7883C110.944 63.3287 110.288 63.1974 109.5 63.3287C109.5 63.3287 109.237 63.3943 108.777 63.5257C108.58 63.5913 108.449 63.5257 108.449 63.5257C108.383 63.3943 108.383 62.8034 108.383 61.7529C108.383 60.4398 108.383 59.7176 108.383 59.652C108.383 59.5206 108.383 59.3893 108.383 59.258C108.383 59.0611 108.383 58.9297 108.383 58.8641C108.383 58.6015 108.318 58.4702 108.121 58.4702C107.924 58.4702 107.793 58.5358 107.793 58.6015C107.793 58.7984 107.793 58.9954 107.793 59.258V60.5055C107.793 65.758 107.858 68.5155 107.858 68.8438C107.858 69.763 107.924 70.2226 107.924 70.2882C107.99 70.4195 108.055 70.4852 108.187 70.4852C108.449 70.4852 108.646 70.4852 108.974 70.4852C109.631 70.4852 110.091 70.4195 110.353 70.3539C110.813 70.1569 111.272 69.8286 111.732 69.2377C112.192 68.7125 112.388 67.7933 112.323 66.4802C112.323 65.1671 112.06 64.3135 111.469 63.7883ZM116.525 58.7328C116.722 58.7328 116.853 58.9297 116.853 59.258C116.853 59.5206 116.853 60.4398 116.853 62.1469L116.787 66.2175C116.722 67.8589 116.722 68.7781 116.853 69.0408C116.919 69.1721 117.05 68.8438 117.313 67.9903C117.641 67.0711 117.838 66.4802 117.904 66.2832C117.969 66.0862 118.166 65.561 118.429 64.8388C118.691 64.1166 118.888 63.5913 119.02 63.3287C119.151 62.9348 119.348 62.4095 119.545 61.6216C119.742 60.8338 119.873 60.4398 119.939 60.2429C120.005 60.1772 120.07 60.0459 120.136 59.7833C120.202 59.5863 120.267 59.3893 120.333 59.258C120.53 58.8641 120.661 58.6671 120.792 58.6671C120.924 58.6671 121.055 58.7984 121.055 58.9954C121.055 59.1267 121.055 59.3893 121.055 59.7833C121.055 60.1772 121.121 61.8186 121.186 64.6418L121.121 69.1721C121.121 69.8286 121.121 70.2226 121.055 70.2882C120.989 70.4195 120.924 70.4852 120.792 70.4852C120.661 70.4852 120.595 70.4195 120.464 70.2882C120.464 70.2882 120.464 69.0408 120.464 66.6115C120.464 65.4953 120.464 64.5105 120.399 63.657C120.399 61.8186 120.399 60.9651 120.399 60.9651C120.399 60.7025 120.267 60.7681 120.136 61.162C120.005 61.4247 119.873 61.8186 119.808 62.2125C119.676 62.6065 119.545 63.1317 119.282 63.657C118.954 64.3792 118.757 64.9044 118.691 65.2327C118.626 65.4297 118.429 66.0206 118.101 67.0711C117.838 67.8589 117.641 68.4498 117.51 68.8438C117.116 69.8943 116.787 70.4852 116.525 70.4852C116.328 70.4852 116.197 70.2882 116.131 69.9599C116.131 69.8943 116.065 69.369 116.065 68.5155C116 68.2529 116 67.8589 116.065 67.3337C116.065 66.6771 116.131 66.2175 116.131 66.1519C116.131 61.9499 116.197 59.8489 116.197 59.7176C116.197 59.3237 116.197 59.0611 116.262 58.9297C116.328 58.7328 116.459 58.7328 116.525 58.7328ZM120.727 55.7783C120.727 55.647 120.661 55.5813 120.464 55.5156C120.267 55.5156 120.005 55.6469 119.742 55.9752C119.742 56.0409 119.676 56.1065 119.611 56.1722C119.479 56.3692 119.348 56.5661 119.151 56.8288C119.02 57.0257 118.888 57.157 118.888 57.157C118.823 57.0914 118.494 56.7631 117.904 56.1065C117.641 55.8439 117.378 55.6469 117.181 55.5156C116.984 55.45 116.853 55.45 116.787 55.5156C116.722 55.5813 116.787 55.7126 116.984 55.9096C117.05 55.9752 117.116 56.0409 117.247 56.1722C118.166 57.157 118.626 57.6823 118.757 57.7479C118.823 57.8136 118.888 57.8136 118.954 57.8136C119.085 57.8136 119.151 57.7479 119.217 57.6823C119.282 57.6166 119.282 57.551 119.348 57.551C119.414 57.4197 119.545 57.354 119.611 57.2883C120.333 56.3692 120.727 55.9096 120.727 55.7783ZM132.085 69.763C132.085 69.1721 132.085 68.3842 132.085 67.465C132.085 66.4802 132.085 65.8236 132.085 65.561C132.085 65.2984 132.085 64.7731 132.085 63.9852C132.085 63.263 132.085 62.8034 132.085 62.6065C132.02 60.8994 131.954 59.9146 131.888 59.7833C131.823 59.652 131.626 59.5206 131.429 59.5206H130.706C129.656 59.5206 129.065 59.652 128.934 59.7833C128.802 59.9146 128.737 60.8338 128.671 62.6065C128.671 62.7378 128.671 63.1974 128.671 63.9852C128.671 64.7075 128.737 65.2327 128.671 65.561C128.605 68.3185 128.605 69.6973 128.605 69.763V69.8286H128.671H128.737C128.868 69.8286 129.328 69.8286 129.984 69.8286C130.247 69.8286 130.444 69.8286 130.575 69.8286C130.641 69.8286 130.641 69.8286 130.706 69.8286H132.085V69.763ZM134.646 71.9296C134.711 72.2579 134.646 72.4549 134.449 72.4549C134.252 72.4549 134.186 72.4549 134.121 72.3892C133.989 72.3235 133.924 72.1922 133.924 71.9296C133.924 71.9953 133.858 71.7326 133.727 71.2731C133.661 71.1417 133.595 70.8791 133.398 70.6165C133.267 70.4195 132.873 70.3539 132.085 70.3539H131.757C131.691 70.3539 131.56 70.3539 131.429 70.3539C131.56 70.3539 130.706 70.3539 128.934 70.3539H128.54C127.883 70.3539 127.555 70.4852 127.424 70.6165C127.227 70.8791 127.161 71.0761 127.095 71.2731C127.03 71.5357 126.964 71.7983 126.898 71.9296C126.898 72.1922 126.833 72.3235 126.701 72.3892C126.636 72.3892 126.57 72.4549 126.373 72.4549C126.176 72.4549 126.111 72.2579 126.176 71.9296C126.176 71.864 126.242 71.864 126.308 71.7983C126.373 71.6013 126.505 71.3387 126.57 71.0104C126.701 70.4852 126.964 70.1569 127.292 69.8943C127.424 69.763 127.621 69.763 127.818 69.6973C127.883 69.6973 127.949 69.6973 128.015 69.6317C128.015 69.566 128.015 69.5003 128.015 69.4347C128.015 69.0408 128.015 66.8741 128.015 63.0004C127.949 60.5711 128.015 59.258 128.212 59.1267C128.409 58.9297 129.328 58.7984 130.838 58.7984C131.691 58.7984 132.151 58.8641 132.282 59.0611C132.611 59.3893 132.742 60.7025 132.742 62.9348C132.742 66.8084 132.742 68.9751 132.742 69.369C132.742 69.5003 132.742 69.566 132.807 69.6317C132.807 69.6317 132.807 69.6317 132.873 69.6317C133.201 69.6973 133.464 69.763 133.661 69.8286C133.989 70.0256 134.186 70.4195 134.383 70.9448C134.449 71.0761 134.515 71.2731 134.58 71.47C134.58 71.667 134.646 71.7983 134.646 71.9296ZM137.666 59.3237C138.191 59.3237 138.585 59.5206 138.913 59.9146C139.11 60.2429 139.242 60.7025 139.307 61.4247C139.373 62.2125 139.176 62.8034 138.848 63.1974C138.454 63.657 137.535 63.9196 136.09 63.8539C135.893 63.8539 135.828 63.7226 135.828 63.5913C135.828 61.8843 135.959 60.8994 136.025 60.5711C136.156 60.1772 136.419 59.9146 136.747 59.652C137.075 59.455 137.338 59.3237 137.666 59.3237ZM139.176 69.1721C138.651 69.4347 138.388 69.566 138.257 69.566C137.732 69.6973 137.206 69.566 136.747 69.3034C136.222 68.9751 135.893 67.465 135.893 64.7075C135.893 64.5105 135.959 64.4448 136.156 64.5105C136.681 64.5761 137.272 64.5762 137.863 64.4448C138.585 64.3135 139.11 64.1166 139.373 63.7883C139.701 63.46 139.898 62.8034 139.964 61.9499C140.03 61.0964 139.964 60.5055 139.767 60.0459C139.504 59.5206 139.242 59.1267 138.979 58.9297C138.454 58.5358 137.732 58.5358 136.878 58.7984C135.893 59.1267 135.368 60.0459 135.302 61.6873C135.237 62.7378 135.237 64.2479 135.171 66.2175C135.171 68.0559 135.499 69.2377 136.156 69.8286C136.616 70.2226 137.141 70.4195 137.797 70.4195C138.52 70.4195 139.11 70.2882 139.701 69.8943C139.898 69.763 139.898 69.566 139.767 69.369C139.57 69.1064 139.439 69.0407 139.176 69.1721ZM146.004 58.8641C146.004 58.6015 146.136 58.4702 146.267 58.4702C146.464 58.4702 146.595 58.7984 146.595 59.455C146.595 59.5863 146.595 60.0459 146.661 60.7025C146.661 61.4247 146.727 61.8843 146.727 62.0812C146.727 63.0004 146.792 64.2479 146.792 65.758C146.792 66.6115 146.858 67.9903 146.858 69.763C146.858 70.0256 146.858 70.1569 146.792 70.2226C146.661 70.3539 146.53 70.4852 146.464 70.4852C146.201 70.4852 146.07 70.2882 146.07 69.8943C146.136 66.5458 146.136 64.7075 146.004 64.3792C145.939 64.2479 145.545 64.1822 144.823 64.1822C143.509 64.1822 142.787 64.2479 142.722 64.3792C142.656 64.5762 142.59 65.364 142.525 66.6115C142.525 67.0054 142.525 67.5963 142.525 68.4498C142.525 69.3034 142.59 69.8286 142.59 70.0256C142.59 70.2882 142.525 70.4195 142.328 70.4195C142.131 70.4195 141.934 70.2882 141.868 70.0912C141.868 70.0912 141.868 69.5003 141.802 68.3185C141.802 67.9903 141.802 67.662 141.802 67.3994C141.802 67.0711 141.802 66.7428 141.802 66.3489C141.737 62.3439 141.737 59.8489 141.802 58.9297C141.802 58.6671 141.934 58.5358 142.131 58.4702C142.328 58.4702 142.459 58.5358 142.459 58.7984C142.459 59.258 142.459 59.8489 142.459 60.5711C142.328 62.4095 142.328 63.3943 142.525 63.5257C142.722 63.657 143.247 63.7226 144.232 63.7226C145.216 63.7226 145.742 63.657 145.873 63.5257C146.136 63.3943 146.136 61.8843 146.004 58.8641ZM152.898 66.0862C153.029 67.3337 152.767 68.3185 152.307 68.9751C151.979 69.4347 151.519 69.6973 150.929 69.8286C150.403 69.9599 150.075 69.8943 149.944 69.6973C149.878 69.566 149.812 68.9751 149.812 67.9246C149.812 65.4297 149.812 64.1166 149.944 64.0509C150.403 63.7883 150.863 63.7226 151.454 63.8539C152.307 64.1166 152.833 64.8388 152.898 66.0862ZM152.701 63.7883C152.176 63.3287 151.519 63.1974 150.732 63.3287C150.732 63.3287 150.469 63.3943 150.009 63.5257C149.812 63.5913 149.681 63.5913 149.681 63.5257C149.615 63.3943 149.615 62.8034 149.615 61.7529C149.615 60.4398 149.615 59.7176 149.615 59.652C149.615 59.5206 149.615 59.3893 149.615 59.258C149.615 59.0611 149.615 58.9297 149.615 58.8641C149.615 58.6015 149.55 58.4702 149.353 58.4702C149.156 58.4702 149.024 58.5358 149.024 58.6015C149.024 58.7328 149.024 58.9297 149.024 59.258V60.5055C149.024 65.758 149.09 68.5155 149.09 68.8438C149.09 69.763 149.156 70.2226 149.156 70.2882C149.221 70.4195 149.287 70.4195 149.353 70.4852C149.484 70.4852 149.55 70.4852 149.681 70.4852C150.666 70.4852 151.257 70.4195 151.519 70.3539C151.979 70.2226 152.439 69.8286 152.898 69.2377C153.358 68.7125 153.555 67.7933 153.489 66.4802C153.62 65.1671 153.292 64.3135 152.701 63.7883Z" fill="#2B2A29"/>
<path fill-rule="evenodd" clip-rule="evenodd" d="M84.9444 36.8037C84.9444 37.0663 84.9444 37.3289 84.9444 37.5915C84.9444 37.8542 84.9444 38.1168 84.9444 38.3794V39.8895C84.9444 40.8087 84.9444 41.3996 84.9444 41.7935C84.9444 42.1874 84.9444 42.5814 85.0101 42.9097C85.0101 43.2379 85.0101 43.5662 85.0101 43.9602C85.0101 44.3541 85.0101 44.945 85.0101 45.7985C85.0101 46.0611 85.0101 46.3894 85.0101 46.7177C85.0101 47.046 85.0101 47.4399 85.0101 47.7682V50.4601C85.0101 50.7227 85.0101 51.051 85.0101 51.3793C85.0101 51.7076 84.9444 52.2328 84.8788 52.8894C84.8131 53.4146 84.6818 53.6772 84.5505 53.6116C84.4192 53.5459 84.2879 53.3489 84.2222 53.0207V52.955C84.1566 52.758 84.0909 52.5611 84.0909 52.2985C84.0909 52.0358 84.0253 51.6419 84.0253 51.1823V49.147C84.0253 48.8187 84.0253 48.4248 84.0253 48.0965C84.0253 47.7025 84.0253 47.3086 84.0253 46.849C84.0253 45.4046 84.0253 44.0915 84.0253 42.9097C84.0253 41.7935 83.9596 40.5461 83.8939 39.2986V39.1673C83.5657 40.0865 83.1061 40.743 82.6465 41.2683C82.1212 41.7935 81.596 42.0561 81.0051 42.0561C80.3485 42.0561 79.6263 41.6622 78.9697 40.8743C78.3132 40.0865 77.8536 38.9703 77.6566 37.5915C77.4597 36.6724 77.394 35.9501 77.3284 35.2279C77.2627 34.5714 77.2627 33.7178 77.2627 32.7987V25.5109C77.2627 24.1321 77.2627 23.2129 77.2627 22.622C77.2627 22.0311 77.2627 21.6372 77.2627 21.2432V18.0917C77.2627 17.8948 77.2627 17.6978 77.2627 17.4352C77.2627 17.2382 77.2627 16.9756 77.2627 16.7786C77.2627 16.2534 77.4597 15.9907 77.7879 15.9907C77.9193 15.9907 78.0506 15.9907 78.1819 16.0564C78.3132 16.1221 78.3788 16.1877 78.4445 16.2534C78.5758 16.6473 78.5758 17.3695 78.5758 18.3544V20.5867C78.5758 21.4402 78.5758 22.1624 78.5758 22.819C78.5758 23.4755 78.5758 24.1321 78.5758 24.7886V28.9906C78.5758 29.9755 78.5758 30.829 78.5758 31.4855C78.5758 32.1421 78.5758 32.9956 78.6415 33.9805C78.7071 34.8996 78.7071 35.7532 78.8384 36.6067C78.9041 37.4602 79.0354 38.1824 79.2324 38.7733C79.4293 39.3642 79.692 39.8895 79.9546 40.2178C80.2829 40.5461 80.6111 40.743 81.0707 40.743C81.5303 40.743 81.9899 40.4147 82.3839 39.7582C82.7778 39.1016 83.1061 38.3138 83.4344 37.3289C83.697 36.2784 83.8939 35.2936 83.9596 34.3744C84.0253 33.3896 84.0909 32.2734 84.0909 31.0259V26.2331C84.0909 25.7078 84.0909 25.3139 84.0909 24.9199C84.0909 24.5917 84.0909 24.1977 84.0909 23.8695V23.8038C84.0253 23.4755 84.0253 23.1472 84.0253 22.819C84.0253 22.4907 84.0253 22.0311 84.0253 21.4402V20.7836C84.0253 20.6523 84.0253 20.521 84.0253 20.3897C84.0253 20.2584 84.0253 20.1271 84.0253 19.9301C84.0253 19.8644 84.0253 19.7331 84.0253 19.6018C84.0253 19.4049 84.0253 19.2079 84.0253 19.0109V18.9453C83.9596 18.5513 83.9596 18.1574 83.9596 17.7635C83.9596 17.3695 83.9596 16.9099 83.9596 16.516C83.9596 16.2534 83.9596 15.9907 84.0253 15.7938C84.0909 15.5968 84.1566 15.4655 84.3535 15.4655H84.6162C84.8131 15.6625 84.9444 15.8594 85.0101 16.0564C85.0757 16.2534 85.1414 16.516 85.2071 16.7786C85.2071 16.9756 85.2071 17.1069 85.2071 17.1726C85.2071 17.3039 85.2071 17.3695 85.2071 17.5008C85.2727 19.6018 85.3384 21.5058 85.3384 23.3442C85.3384 25.1169 85.3384 27.0866 85.3384 29.1876V32.536C85.3384 33.4552 85.3384 34.1118 85.3384 34.7027C85.0101 35.1623 85.0101 35.8845 84.9444 36.8037ZM95.0554 15.6625C95.2524 15.6625 95.4494 15.6625 95.712 15.6625C95.9746 15.6625 96.1716 15.7281 96.4342 15.7281C96.6312 15.8594 96.7625 15.9907 96.6968 16.0564C96.6968 16.1221 96.6968 16.2534 96.7625 16.4503C96.7625 16.6473 96.5655 16.713 96.2372 16.713C95.7777 16.713 95.3837 16.6473 94.9898 16.5816C94.5959 16.516 94.2019 16.4503 93.808 16.4503C93.2171 16.4503 92.6262 16.4503 92.1009 16.4503C91.51 16.4503 90.9191 16.516 90.3282 16.5816V17.1726C90.3282 19.6018 90.3282 22.0967 90.2626 24.526C90.1969 26.9553 90.1969 29.3845 90.1969 31.8795L90.0656 32.536C90.5252 32.536 90.9848 32.536 91.5757 32.6017C92.1009 32.6673 92.6262 32.6673 93.0858 32.6673H93.611C93.9393 32.6673 94.1363 32.8643 94.2019 33.2582V33.3896C94.2019 33.4552 94.0706 33.5209 93.7423 33.5209H93.0201C92.8231 33.4552 92.6918 33.4552 92.5605 33.4552C92.4292 33.4552 92.2322 33.4552 92.1009 33.4552C91.8383 33.4552 91.51 33.4552 91.1817 33.4552C90.8535 33.4552 90.5252 33.5209 90.2626 33.5209V33.9805C90.1969 34.4401 90.1969 34.9653 90.1969 35.4249C90.1969 35.8845 90.1969 36.4097 90.1969 36.935V38.9047C90.1969 39.2329 90.1969 39.5612 90.1969 39.9551C90.1969 40.2834 90.1969 40.6774 90.1969 41.0056V41.5965L90.1313 45.9298C90.1313 46.0611 90.1313 46.2581 90.1313 46.5864C90.1313 46.849 90.1313 47.5056 90.1313 48.5561V51.7076C90.3939 51.7732 90.7222 51.8389 91.1161 51.8389C91.51 51.8389 91.904 51.8389 92.1666 51.8389C92.5605 51.8389 92.8888 51.7732 93.2827 51.7076C93.6767 51.6419 94.0706 51.5762 94.5302 51.5762C94.8585 51.5762 95.0554 51.6419 95.2524 51.7732C95.4494 51.9045 95.515 52.1671 95.515 52.5611V52.6267L94.4645 52.5611C94.2676 52.5611 94.1363 52.5611 93.8736 52.5611C93.611 52.5611 93.4141 52.6267 93.0858 52.6267C92.7575 52.6267 92.4292 52.6924 91.9696 52.6924C91.51 52.6924 91.0504 52.6924 90.3939 52.6924H89.9343H89.7373C89.5403 52.6924 89.3434 52.6267 89.2121 52.4954C89.0808 52.3641 89.0151 51.9702 89.0151 51.248C89.0808 50.1975 89.0808 49.0813 89.0808 47.8995C89.0151 46.7177 89.0151 45.4046 89.0151 44.0915C89.0151 43.1066 89.0151 42.1874 89.0151 41.2026C89.0151 40.2178 89.0151 39.2329 89.0151 38.2481V33.9148C89.0151 32.93 89.0151 32.1421 89.0151 31.4199C89.0151 30.6977 89.0808 30.1068 89.0808 29.5159C89.0808 28.925 89.1464 28.3997 89.1464 27.8745C89.1464 27.3492 89.1464 26.7583 89.1464 26.1018V24.9856C89.1464 23.9351 89.1464 23.0816 89.1464 22.425C89.1464 21.7685 89.1464 21.2432 89.1464 20.718V20.6523C89.0808 20.1927 89.0808 19.6675 89.0808 19.1422C89.0808 18.617 89.0808 17.9604 89.0808 17.1726V16.9099C89.0808 16.7786 89.0808 16.713 89.0151 16.5816C88.9494 16.4503 88.9494 16.319 89.0151 16.1877C89.0808 16.0564 89.1464 15.9251 89.2777 15.8594C89.409 15.7938 89.6717 15.7281 89.9999 15.7281C90.1969 15.7281 90.3282 15.7281 90.5252 15.7281C90.7222 15.7281 90.8535 15.7281 91.1161 15.7281H91.904C92.6262 15.7281 93.2827 15.7281 93.808 15.6625C94.3332 15.7281 94.7272 15.6625 95.0554 15.6625ZM108.252 16.4503V16.6473L105.889 16.516C105.495 16.4503 105.166 16.4503 104.773 16.516C104.444 16.5816 104.05 16.516 103.656 16.4503V16.8443C103.591 17.8948 103.525 18.8796 103.525 19.7988C103.525 20.7836 103.525 21.7685 103.525 22.7533C103.525 25.5108 103.525 28.2684 103.525 31.0916C103.525 33.9148 103.656 36.6724 103.788 39.4299V50.7227C103.788 51.8389 103.591 52.6267 103.197 53.0207H103.131C103.065 53.0207 103.065 53.0207 103.065 53.0207C103.065 53.0207 103 53.0207 102.934 53.0207L102.672 52.5611C102.737 51.7732 102.737 50.9197 102.737 50.0005C102.737 49.0813 102.737 47.9652 102.737 46.6521L102.672 43.5006C102.672 41.5965 102.606 39.6269 102.54 37.5915C102.475 35.5562 102.409 33.5209 102.475 31.6168V26.2331C102.475 25.5765 102.475 24.7886 102.475 23.9351C102.475 23.0816 102.475 22.3594 102.475 21.7685V18.1574C102.475 17.8948 102.475 17.5665 102.475 17.2382C102.475 16.9099 102.409 16.6473 102.343 16.4503H100.899L99.1261 16.5816H98.6665C98.4696 16.5816 98.4039 16.516 98.3382 16.4503C98.2726 16.3847 98.2069 16.1877 98.2069 15.8594C98.2726 15.6625 98.5352 15.5312 99.1918 15.5312C99.4544 15.5312 99.717 15.5312 100.045 15.5312C100.308 15.5312 100.636 15.5312 101.03 15.5312C102.015 15.5312 102.934 15.5312 103.853 15.5312C104.773 15.5312 105.626 15.4655 106.545 15.3998C106.808 15.3998 107.136 15.3998 107.464 15.4655C107.793 15.5312 107.99 15.5968 108.055 15.7938L108.252 16.4503ZM115.737 52.8894C115.54 52.955 115.409 52.955 115.277 52.955C115.146 52.955 114.949 52.955 114.752 52.955C114.555 52.955 114.358 52.955 114.096 52.8894C113.899 52.8237 113.636 52.8237 113.439 52.758C113.242 52.6924 113.111 52.6924 112.914 52.6924C112.717 52.6924 112.586 52.6924 112.454 52.6924H111.995C111.732 52.6924 111.469 52.6267 111.338 52.5611C111.141 52.4954 111.075 52.2328 111.01 51.7076C110.944 51.1823 110.879 50.3944 110.879 49.2783C110.879 48.1621 110.879 46.5864 110.879 44.4854V31.1573C110.879 30.2381 110.879 29.3845 110.879 28.4654C110.879 27.5462 110.879 26.4957 110.879 25.3139V23.2785L110.944 16.3847C110.944 16.0564 111.141 15.8594 111.469 15.7938C111.798 15.7281 112.126 15.7281 112.52 15.7281H113.767C114.03 15.6625 114.227 15.5968 114.358 15.5968C114.818 15.5968 115.277 15.6625 115.868 15.7938C116.459 15.9251 116.985 16.2534 117.51 16.8443C118.035 17.3695 118.429 18.223 118.757 19.2735C119.086 20.324 119.282 21.8341 119.282 23.6725C119.282 25.6422 119.217 27.3492 119.151 28.6623C119.086 30.0411 118.692 31.2886 117.969 32.4047L117.444 33.2582V33.9148C118.232 35.031 118.757 36.4754 119.086 38.2481C119.348 40.0208 119.545 42.1218 119.545 44.6167C119.545 46.1925 119.479 47.5056 119.282 48.5561C119.086 49.5409 118.889 50.3944 118.56 50.9853C118.232 51.5762 117.904 52.0358 117.444 52.2985C116.788 52.5611 116.328 52.758 115.737 52.8894ZM113.833 51.9702C114.03 52.0358 114.227 52.0358 114.424 52.0358C114.621 52.0358 114.818 52.0358 114.949 52.0358C116.197 52.0358 117.05 51.5106 117.51 50.3944C117.969 49.2783 118.232 47.4399 118.232 44.8793V44.1571C118.232 43.3036 118.232 42.3188 118.166 41.137C118.101 40.0208 118.035 38.9047 117.838 37.8542C117.641 36.8037 117.378 35.8845 116.985 35.1623C116.591 34.4401 116.065 34.0461 115.409 34.0461C115.212 34.0461 115.08 34.0461 114.949 34.0461C114.818 34.0461 114.621 34.0461 114.49 34.0461H113.767C113.439 34.0461 113.176 34.0461 112.848 34.1118C112.52 34.1774 112.257 34.2431 111.929 34.4401V34.8996C111.929 35.0966 111.929 35.2936 111.929 35.4905C111.929 35.6875 111.929 35.8845 111.929 36.0158V42.0561C111.929 42.7784 111.929 43.4349 111.929 43.8945C111.929 44.3541 111.929 44.748 111.929 45.0107C111.929 45.2733 111.929 45.4702 111.929 45.6016C111.929 45.7329 111.929 45.8642 111.929 45.9298V51.7076L113.833 51.9702ZM111.798 32.6017V33.1269C111.995 33.0613 112.126 32.9956 112.323 32.9956C112.52 32.9956 112.717 32.9956 112.848 32.9956H113.439C113.964 32.9956 114.424 32.9956 114.752 32.9956C115.146 32.9956 115.409 32.9956 115.671 33.0613V33.1269C116.459 32.8643 117.05 32.0108 117.444 30.5664C117.772 29.1219 117.969 27.4149 117.969 25.3795C117.969 24.1977 117.904 23.0816 117.838 22.0311C117.772 20.9806 117.575 19.9958 117.247 19.2079C116.985 18.42 116.525 17.7635 116 17.2382C115.474 16.713 114.752 16.4503 113.833 16.4503C113.702 16.516 113.636 16.516 113.505 16.516C113.373 16.516 113.242 16.516 113.176 16.516C112.98 16.516 112.848 16.516 112.717 16.516C112.586 16.516 112.389 16.5816 112.257 16.6473H111.798V17.2382C111.798 17.4352 111.798 17.5665 111.798 17.6978C111.798 17.8291 111.798 18.0261 111.798 18.1574V20.0614C111.798 21.0462 111.798 22.2281 111.798 23.6068C111.798 24.9856 111.798 26.2987 111.798 27.6118V31.7482V32.6017ZM129.131 15.6625C129.328 15.6625 129.525 15.6625 129.787 15.6625C130.05 15.6625 130.247 15.7281 130.51 15.7281C130.707 15.8594 130.838 15.9907 130.772 16.0564C130.772 16.1221 130.772 16.2534 130.838 16.4503C130.838 16.6473 130.641 16.713 130.313 16.713C129.853 16.713 129.459 16.6473 129.065 16.5816C128.671 16.516 128.277 16.4503 127.883 16.4503C127.292 16.4503 126.702 16.4503 126.176 16.4503C125.585 16.4503 124.995 16.516 124.404 16.5816V17.1726C124.404 19.6018 124.404 22.0967 124.338 24.526C124.272 26.9553 124.272 29.3845 124.272 31.8795L124.141 32.536C124.601 32.536 125.06 32.536 125.651 32.6017C126.176 32.6673 126.702 32.6673 127.161 32.6673H127.686C128.015 32.6673 128.212 32.8643 128.277 33.2582V33.3896C128.277 33.4552 128.146 33.5209 127.818 33.5209H127.161C126.964 33.4552 126.833 33.4552 126.702 33.4552C126.57 33.4552 126.373 33.4552 126.242 33.4552C125.979 33.4552 125.651 33.4552 125.323 33.4552C124.995 33.4552 124.666 33.5209 124.404 33.5209V33.9805C124.338 34.4401 124.338 34.9653 124.338 35.4249C124.338 35.8845 124.338 36.4097 124.338 36.935V38.9047C124.338 39.2329 124.338 39.5612 124.338 39.9551C124.338 40.2834 124.338 40.6774 124.338 41.0056V41.5965L124.272 45.9298C124.272 46.0611 124.272 46.2581 124.272 46.5864C124.272 46.849 124.272 47.5056 124.272 48.5561V51.7076C124.535 51.7732 124.863 51.8389 125.257 51.8389C125.651 51.8389 126.045 51.8389 126.308 51.8389C126.702 51.8389 127.03 51.7732 127.424 51.7076C127.818 51.6419 128.212 51.5762 128.671 51.5762C129 51.5762 129.197 51.6419 129.393 51.7732C129.59 51.9045 129.656 52.1671 129.656 52.5611V52.6267L128.606 52.5611C128.409 52.5611 128.277 52.5611 128.015 52.5611C127.818 52.5611 127.555 52.6267 127.227 52.6267C126.899 52.6267 126.57 52.6924 126.111 52.6924C125.717 52.6924 125.192 52.6924 124.535 52.6924H124.075H123.878C123.681 52.6924 123.484 52.6267 123.353 52.4954C123.222 52.3641 123.156 51.9702 123.156 51.248C123.222 50.1975 123.222 49.0813 123.222 47.8995C123.156 46.7177 123.156 45.4046 123.156 44.0915C123.156 43.1066 123.156 42.1874 123.156 41.2026C123.156 40.2178 123.156 39.2329 123.156 38.2481V33.9148C123.156 32.93 123.156 32.1421 123.156 31.4199C123.156 30.6977 123.222 30.1068 123.222 29.5159C123.222 28.925 123.287 28.3997 123.287 27.8745C123.287 27.3492 123.287 26.7583 123.287 26.1018V24.9856C123.287 23.9351 123.287 23.0816 123.287 22.425C123.287 21.7685 123.287 21.2432 123.287 20.718V20.6523C123.222 20.1927 123.222 19.6675 123.222 19.1422C123.222 18.617 123.222 17.9604 123.222 17.1726V16.9099C123.222 16.7786 123.222 16.713 123.156 16.5816C123.091 16.4503 123.091 16.319 123.156 16.1877C123.222 16.0564 123.287 15.9251 123.419 15.8594C123.55 15.7938 123.813 15.7281 124.141 15.7281C124.338 15.7281 124.469 15.7281 124.666 15.7281C124.863 15.7281 124.995 15.7281 125.257 15.7281H126.045C126.767 15.7281 127.424 15.7281 127.949 15.6625C128.474 15.7281 128.868 15.6625 129.131 15.6625ZM139.045 15.8594C139.57 15.9907 140.095 16.1877 140.555 16.516C141.015 16.8443 141.409 17.3039 141.737 17.8948C142.065 18.4857 142.262 19.3392 142.459 20.324C142.656 21.3089 142.722 22.5563 142.722 24.0664V24.6573C142.722 24.8543 142.722 25.2482 142.722 25.7078C142.722 26.2331 142.722 27.1522 142.722 28.531V29.9755C142.722 31.6825 142.525 33.1269 142.196 34.2431C141.868 35.3592 141.409 36.2784 140.883 36.935C140.358 37.5915 139.833 38.1168 139.242 38.3794C138.651 38.642 138.126 38.7733 137.6 38.7733C137.207 38.7733 136.484 38.642 135.499 38.3794V45.6016C135.565 45.9955 135.565 46.3238 135.565 46.7177C135.565 47.1116 135.565 47.4399 135.565 47.8339V50.1975L135.499 52.6267L135.303 52.8237C135.106 52.8237 134.974 52.758 134.777 52.6924C134.58 52.6267 134.515 52.4298 134.515 52.2328L134.383 45.0107C134.383 44.5511 134.383 44.0915 134.318 43.7632C134.252 43.4349 134.252 43.041 134.252 42.647C134.252 42.4501 134.252 42.3188 134.252 42.1874C134.252 42.0561 134.252 41.9248 134.252 41.7279V39.4299C134.252 38.0511 134.252 36.3441 134.186 34.4401C134.121 32.536 134.121 30.3694 134.121 28.0058C134.121 27.1522 134.121 26.2987 134.121 25.5109C134.121 24.723 134.121 23.8695 134.121 23.0816V19.4705C134.121 19.1422 134.121 18.8139 134.121 18.4857C134.121 18.1574 134.121 17.8291 134.121 17.5665V16.1877C134.186 16.0564 134.318 16.0564 134.515 15.9907C134.777 15.9907 134.974 15.9907 135.171 15.9907H135.631C135.893 15.9907 136.287 15.9251 136.747 15.8594C137.207 15.7938 137.6 15.7281 137.994 15.7281C138.191 15.7281 138.388 15.7281 138.52 15.7281C138.717 15.7938 138.914 15.7938 139.045 15.8594ZM135.303 29.9098C135.237 30.829 135.303 31.7482 135.303 32.6673C135.368 33.5865 135.368 34.4401 135.434 35.2936L135.499 37.0006C136.156 37.4602 136.813 37.6572 137.338 37.6572C138.257 37.6572 138.979 37.3946 139.504 36.8693C140.03 36.3441 140.424 35.6219 140.752 34.7683C141.015 33.9148 141.212 32.93 141.343 31.8795C141.409 30.829 141.474 29.7785 141.474 28.7936V28.3997C141.474 28.1371 141.474 27.8745 141.474 27.5462C141.474 27.2179 141.474 26.8896 141.474 26.627C141.474 26.2987 141.54 26.1018 141.54 25.9048C141.54 25.7078 141.54 25.6422 141.54 25.6422V25.3139C141.54 22.4907 141.343 20.3897 140.949 19.0109C140.555 17.6321 139.636 16.9099 138.257 16.9099C138.06 16.9099 137.863 16.9099 137.666 16.9756C137.469 17.0412 137.207 17.0412 137.01 17.0412L135.303 17.2382V29.9098ZM146.727 52.758V52.6267C146.53 52.6267 146.398 52.4298 146.333 51.9702C146.201 51.5106 146.201 51.051 146.201 50.5914L146.333 48.2934C146.398 47.6369 146.398 46.9803 146.464 46.2581C146.53 45.5359 146.53 44.5511 146.53 43.2379V42.1218C146.53 41.5965 146.53 41.0713 146.53 40.6117C146.53 40.1521 146.53 39.6269 146.464 39.1016C146.398 38.3138 146.333 37.4602 146.333 36.4754C146.267 35.4905 146.267 34.2431 146.267 32.6017C146.267 32.0108 146.267 31.0259 146.267 29.7128C146.267 28.3341 146.267 26.8896 146.333 25.2482C146.333 24.4604 146.333 23.6725 146.333 22.819C146.333 21.9654 146.398 21.1776 146.398 20.3897C146.398 19.6018 146.464 18.9453 146.464 18.2887C146.464 17.6978 146.464 17.2382 146.464 16.9099V16.319C146.464 15.9907 146.53 15.8594 146.595 15.7938C147.055 15.7281 147.58 15.6625 148.105 15.6625C148.631 15.6625 149.222 15.6625 149.812 15.6625C150.206 15.6625 150.535 15.6625 150.797 15.6625C151.06 15.6625 151.323 15.7281 151.52 15.7281C151.782 15.7938 151.979 15.7938 152.176 15.7938C152.373 15.7938 152.57 15.7938 152.833 15.7938H153.424C153.555 15.7938 153.555 15.9251 153.555 16.1221C153.555 16.3847 153.424 16.5816 153.227 16.713C153.03 16.8443 152.767 16.8443 152.57 16.8443C152.307 16.8443 151.979 16.8443 151.651 16.8443C151.323 16.8443 150.994 16.8443 150.666 16.7786C149.944 16.6473 149.287 16.6473 148.762 16.6473C148.499 16.6473 148.302 16.6473 148.04 16.6473C147.843 16.6473 147.58 16.6473 147.318 16.713V17.3039C147.318 18.2887 147.318 18.9453 147.318 19.3392C147.318 19.7331 147.318 19.9301 147.318 19.9301L147.383 31.9451V34.637C147.383 35.0966 147.383 35.5562 147.383 35.8845C147.383 36.2128 147.383 36.541 147.383 36.8037V37.3946L147.252 46.5864L147.318 50.9853V51.8389C147.318 52.3641 147.186 52.758 146.858 52.8894L146.727 52.758Z" fill="#2B2A29" stroke="#2B2A29" stroke-width="0.5669" stroke-miterlimit="22.9256" stroke-linecap="round" stroke-linejoin="round"/>
</svg>
